<mxfile host="app.diagrams.net" modified="2024-04-11T00:19:53.680Z" agent="Mozilla/5.0 (X11; Linux x86_64; rv:124.0) Gecko/20100101 Firefox/124.0" etag="RE-Ju2G3r_cMhOJRG0Gb" version="24.2.3" type="device">
  <diagram name="Page-1" id="l0KRDsaQxMHdXTG80BCY">
    <mxGraphModel dx="2524" dy="2007" grid="1" gridSize="10" guides="1" tooltips="1" connect="1" arrows="1" fold="1" page="1" pageScale="1" pageWidth="850" pageHeight="1100" math="0" shadow="0">
      <root>
        <mxCell id="0" />
        <mxCell id="1" parent="0" />
        <mxCell id="Y__0igIWQnhQRCgXSOKa-3" value="&lt;font style=&quot;font-size: 29px;&quot;&gt;D1&lt;/font&gt;" style="swimlane;horizontal=0;whiteSpace=wrap;html=1;startSize=36;" vertex="1" parent="1">
          <mxGeometry x="632" y="15.5" width="346" height="107" as="geometry" />
        </mxCell>
        <mxCell id="Y__0igIWQnhQRCgXSOKa-4" value="&lt;font style=&quot;font-size: 30px;&quot;&gt;&amp;nbsp;Users&lt;/font&gt;" style="text;html=1;align=center;verticalAlign=middle;resizable=0;points=[];autosize=1;strokeColor=none;fillColor=none;fontSize=16;" vertex="1" parent="Y__0igIWQnhQRCgXSOKa-3">
          <mxGeometry x="138" y="38" width="110" height="50" as="geometry" />
        </mxCell>
        <mxCell id="Y__0igIWQnhQRCgXSOKa-5" value="&lt;font style=&quot;font-size: 27px;&quot;&gt;3&lt;/font&gt;" style="swimlane;whiteSpace=wrap;html=1;startSize=44;" vertex="1" parent="1">
          <mxGeometry x="2" y="397" width="342" height="270" as="geometry" />
        </mxCell>
        <mxCell id="Y__0igIWQnhQRCgXSOKa-6" value="&lt;font style=&quot;font-size: 31px;&quot;&gt;Delete Account&lt;br&gt;&lt;/font&gt;" style="text;html=1;align=center;verticalAlign=middle;resizable=0;points=[];autosize=1;strokeColor=none;fillColor=none;fontSize=16;" vertex="1" parent="Y__0igIWQnhQRCgXSOKa-5">
          <mxGeometry x="46" y="111" width="230" height="50" as="geometry" />
        </mxCell>
        <mxCell id="Y__0igIWQnhQRCgXSOKa-8" value="&lt;font style=&quot;font-size: 27px;&quot;&gt;1&lt;/font&gt;" style="swimlane;whiteSpace=wrap;html=1;startSize=44;" vertex="1" parent="1">
          <mxGeometry y="-442" width="332" height="266" as="geometry" />
        </mxCell>
        <mxCell id="Y__0igIWQnhQRCgXSOKa-9" value="&lt;font style=&quot;font-size: 31px;&quot;&gt;Sign Up&lt;br&gt;&lt;/font&gt;" style="text;html=1;align=center;verticalAlign=middle;resizable=0;points=[];autosize=1;strokeColor=none;fillColor=none;fontSize=16;" vertex="1" parent="Y__0igIWQnhQRCgXSOKa-8">
          <mxGeometry x="96" y="111" width="130" height="50" as="geometry" />
        </mxCell>
        <mxCell id="Y__0igIWQnhQRCgXSOKa-12" value="&lt;font style=&quot;font-size: 27px;&quot;&gt;2&lt;/font&gt;" style="swimlane;whiteSpace=wrap;html=1;startSize=44;" vertex="1" parent="1">
          <mxGeometry x="-10" y="6.5" width="332" height="266" as="geometry" />
        </mxCell>
        <mxCell id="Y__0igIWQnhQRCgXSOKa-13" value="&lt;font style=&quot;font-size: 31px;&quot;&gt;Login&lt;br&gt;&lt;/font&gt;" style="text;html=1;align=center;verticalAlign=middle;resizable=0;points=[];autosize=1;strokeColor=none;fillColor=none;fontSize=16;" vertex="1" parent="Y__0igIWQnhQRCgXSOKa-12">
          <mxGeometry x="111" y="111" width="100" height="50" as="geometry" />
        </mxCell>
        <mxCell id="Y__0igIWQnhQRCgXSOKa-14" value="&lt;font style=&quot;font-size: 37px;&quot;&gt;User&lt;/font&gt;" style="rounded=0;whiteSpace=wrap;html=1;" vertex="1" parent="1">
          <mxGeometry x="-520" y="94" width="196" height="89" as="geometry" />
        </mxCell>
        <mxCell id="Y__0igIWQnhQRCgXSOKa-25" value="" style="endArrow=classic;html=1;rounded=0;exitX=1;exitY=0.5;exitDx=0;exitDy=0;entryX=0;entryY=0.5;entryDx=0;entryDy=0;" edge="1" parent="1" source="Y__0igIWQnhQRCgXSOKa-14" target="Y__0igIWQnhQRCgXSOKa-12">
          <mxGeometry width="50" height="50" relative="1" as="geometry">
            <mxPoint x="-400" y="-80" as="sourcePoint" />
            <mxPoint x="-350" y="-130" as="targetPoint" />
          </mxGeometry>
        </mxCell>
        <mxCell id="Y__0igIWQnhQRCgXSOKa-65" value="&lt;font style=&quot;font-size: 30px;&quot;&gt;Credentials&lt;/font&gt;" style="edgeLabel;html=1;align=center;verticalAlign=middle;resizable=0;points=[];" vertex="1" connectable="0" parent="Y__0igIWQnhQRCgXSOKa-25">
          <mxGeometry x="-0.2539" y="1" relative="1" as="geometry">
            <mxPoint y="-21" as="offset" />
          </mxGeometry>
        </mxCell>
        <mxCell id="Y__0igIWQnhQRCgXSOKa-38" value="" style="endArrow=classic;html=1;rounded=0;exitX=1;exitY=0.5;exitDx=0;exitDy=0;entryX=0.25;entryY=0;entryDx=0;entryDy=0;" edge="1" parent="1" source="Y__0igIWQnhQRCgXSOKa-8" target="Y__0igIWQnhQRCgXSOKa-3">
          <mxGeometry width="50" height="50" relative="1" as="geometry">
            <mxPoint x="330" y="-300" as="sourcePoint" />
            <mxPoint x="720" as="targetPoint" />
            <Array as="points">
              <mxPoint x="720" y="-300" />
            </Array>
          </mxGeometry>
        </mxCell>
        <mxCell id="Y__0igIWQnhQRCgXSOKa-68" value="&lt;font style=&quot;font-size: 30px;&quot;&gt;Add User&lt;/font&gt;" style="edgeLabel;html=1;align=center;verticalAlign=middle;resizable=0;points=[];" vertex="1" connectable="0" parent="Y__0igIWQnhQRCgXSOKa-38">
          <mxGeometry x="-0.2291" y="-1" relative="1" as="geometry">
            <mxPoint x="-53" y="-29" as="offset" />
          </mxGeometry>
        </mxCell>
        <mxCell id="Y__0igIWQnhQRCgXSOKa-39" value="" style="endArrow=classic;html=1;rounded=0;entryX=0.25;entryY=1;entryDx=0;entryDy=0;exitX=1;exitY=0.5;exitDx=0;exitDy=0;" edge="1" parent="1" source="Y__0igIWQnhQRCgXSOKa-5" target="Y__0igIWQnhQRCgXSOKa-3">
          <mxGeometry width="50" height="50" relative="1" as="geometry">
            <mxPoint x="370" y="220" as="sourcePoint" />
            <mxPoint x="760" y="520" as="targetPoint" />
            <Array as="points">
              <mxPoint x="719" y="460" />
            </Array>
          </mxGeometry>
        </mxCell>
        <mxCell id="Y__0igIWQnhQRCgXSOKa-64" value="&lt;div&gt;&lt;font style=&quot;font-size: 30px;&quot;&gt;Verify Credentials&lt;/font&gt;&lt;/div&gt;&lt;div&gt;&lt;font style=&quot;font-size: 30px;&quot;&gt;and Remove User&lt;br&gt;&lt;/font&gt;&lt;/div&gt;" style="edgeLabel;html=1;align=center;verticalAlign=middle;resizable=0;points=[];" vertex="1" connectable="0" parent="Y__0igIWQnhQRCgXSOKa-39">
          <mxGeometry x="-0.8006" y="-5" relative="1" as="geometry">
            <mxPoint x="105" y="-103" as="offset" />
          </mxGeometry>
        </mxCell>
        <mxCell id="Y__0igIWQnhQRCgXSOKa-40" value="" style="endArrow=classic;html=1;rounded=0;entryX=0;entryY=0.5;entryDx=0;entryDy=0;exitX=1;exitY=0.25;exitDx=0;exitDy=0;" edge="1" parent="1" source="Y__0igIWQnhQRCgXSOKa-12" target="Y__0igIWQnhQRCgXSOKa-3">
          <mxGeometry width="50" height="50" relative="1" as="geometry">
            <mxPoint x="332" y="60" as="sourcePoint" />
            <mxPoint x="631.924" y="59.95499999999993" as="targetPoint" />
          </mxGeometry>
        </mxCell>
        <mxCell id="Y__0igIWQnhQRCgXSOKa-57" value="&lt;font style=&quot;font-size: 30px;&quot;&gt;Verify Credentials&lt;/font&gt;" style="edgeLabel;html=1;align=center;verticalAlign=middle;resizable=0;points=[];" vertex="1" connectable="0" parent="Y__0igIWQnhQRCgXSOKa-40">
          <mxGeometry x="-0.4138" y="-2" relative="1" as="geometry">
            <mxPoint x="54" y="-42" as="offset" />
          </mxGeometry>
        </mxCell>
        <mxCell id="Y__0igIWQnhQRCgXSOKa-41" value="&lt;font style=&quot;font-size: 30px;&quot;&gt;&lt;br&gt;&lt;/font&gt;" style="text;html=1;align=center;verticalAlign=middle;resizable=0;points=[];autosize=1;strokeColor=none;fillColor=none;fontSize=16;" vertex="1" parent="1">
          <mxGeometry x="490" y="-340" width="20" height="50" as="geometry" />
        </mxCell>
        <mxCell id="Y__0igIWQnhQRCgXSOKa-47" value="" style="endArrow=classic;html=1;rounded=0;exitX=-0.017;exitY=-0.042;exitDx=0;exitDy=0;exitPerimeter=0;entryX=0.75;entryY=0;entryDx=0;entryDy=0;" edge="1" parent="1" source="Y__0igIWQnhQRCgXSOKa-3" target="Y__0igIWQnhQRCgXSOKa-14">
          <mxGeometry width="50" height="50" relative="1" as="geometry">
            <mxPoint x="670" y="-100" as="sourcePoint" />
            <mxPoint x="-370" y="-80" as="targetPoint" />
            <Array as="points">
              <mxPoint x="620" y="-80" />
              <mxPoint x="-370" y="-70" />
            </Array>
          </mxGeometry>
        </mxCell>
        <mxCell id="Y__0igIWQnhQRCgXSOKa-70" value="&lt;font style=&quot;font-size: 30px;&quot;&gt;Account Created&lt;br&gt;&lt;/font&gt;" style="edgeLabel;html=1;align=center;verticalAlign=middle;resizable=0;points=[];" vertex="1" connectable="0" parent="Y__0igIWQnhQRCgXSOKa-47">
          <mxGeometry x="-0.2719" y="-2" relative="1" as="geometry">
            <mxPoint y="-20" as="offset" />
          </mxGeometry>
        </mxCell>
        <mxCell id="Y__0igIWQnhQRCgXSOKa-55" value="" style="group;movable=1;resizable=1;rotatable=1;deletable=1;editable=1;locked=0;connectable=1;" vertex="1" connectable="0" parent="1">
          <mxGeometry x="-425" y="-360" width="321" height="50" as="geometry" />
        </mxCell>
        <mxCell id="Y__0igIWQnhQRCgXSOKa-51" value="" style="endArrow=classic;html=1;rounded=0;entryX=0;entryY=0.5;entryDx=0;entryDy=0;exitX=0.5;exitY=0;exitDx=0;exitDy=0;" edge="1" parent="Y__0igIWQnhQRCgXSOKa-55" source="Y__0igIWQnhQRCgXSOKa-14" target="Y__0igIWQnhQRCgXSOKa-8">
          <mxGeometry width="50" height="50" relative="1" as="geometry">
            <mxPoint x="-53" y="296" as="sourcePoint" />
            <mxPoint x="-3" y="246" as="targetPoint" />
            <Array as="points">
              <mxPoint y="50" />
            </Array>
          </mxGeometry>
        </mxCell>
        <mxCell id="Y__0igIWQnhQRCgXSOKa-66" value="&lt;font style=&quot;font-size: 30px;&quot;&gt;Credentials&lt;/font&gt;" style="edgeLabel;html=1;align=center;verticalAlign=middle;resizable=0;points=[];" vertex="1" connectable="0" parent="Y__0igIWQnhQRCgXSOKa-51">
          <mxGeometry x="0.7958" y="-1" relative="1" as="geometry">
            <mxPoint x="-95" y="-32" as="offset" />
          </mxGeometry>
        </mxCell>
        <mxCell id="Y__0igIWQnhQRCgXSOKa-61" value="" style="endArrow=classic;html=1;rounded=0;exitX=0.5;exitY=1;exitDx=0;exitDy=0;entryX=0;entryY=0.5;entryDx=0;entryDy=0;" edge="1" parent="1" source="Y__0igIWQnhQRCgXSOKa-14" target="Y__0igIWQnhQRCgXSOKa-5">
          <mxGeometry width="50" height="50" relative="1" as="geometry">
            <mxPoint x="-20" y="280" as="sourcePoint" />
            <mxPoint x="30" y="230" as="targetPoint" />
            <Array as="points">
              <mxPoint x="-430" y="465" />
            </Array>
          </mxGeometry>
        </mxCell>
        <mxCell id="Y__0igIWQnhQRCgXSOKa-62" value="&lt;font style=&quot;font-size: 30px;&quot;&gt;Credentials&lt;br&gt;&lt;/font&gt;" style="edgeLabel;html=1;align=center;verticalAlign=middle;resizable=0;points=[];" vertex="1" connectable="0" parent="Y__0igIWQnhQRCgXSOKa-61">
          <mxGeometry x="0.116" y="1" relative="1" as="geometry">
            <mxPoint x="61" y="-32" as="offset" />
          </mxGeometry>
        </mxCell>
        <mxCell id="Y__0igIWQnhQRCgXSOKa-71" value="" style="endArrow=classic;html=1;rounded=0;exitX=0;exitY=0.25;exitDx=0;exitDy=0;entryX=1;entryY=0;entryDx=0;entryDy=0;" edge="1" parent="1" source="Y__0igIWQnhQRCgXSOKa-3" target="Y__0igIWQnhQRCgXSOKa-14">
          <mxGeometry width="50" height="50" relative="1" as="geometry">
            <mxPoint x="390" y="140" as="sourcePoint" />
            <mxPoint x="-310.5" y="-10" as="targetPoint" />
            <Array as="points">
              <mxPoint x="590" y="-20" />
              <mxPoint x="-320" y="-20" />
            </Array>
          </mxGeometry>
        </mxCell>
        <mxCell id="Y__0igIWQnhQRCgXSOKa-72" value="&lt;font style=&quot;font-size: 30px;&quot;&gt;Logged In&lt;br&gt;&lt;/font&gt;" style="edgeLabel;html=1;align=center;verticalAlign=middle;resizable=0;points=[];" vertex="1" connectable="0" parent="Y__0igIWQnhQRCgXSOKa-71">
          <mxGeometry x="-0.2763" y="-1" relative="1" as="geometry">
            <mxPoint y="-19" as="offset" />
          </mxGeometry>
        </mxCell>
        <mxCell id="Y__0igIWQnhQRCgXSOKa-73" value="&lt;font style=&quot;font-size: 30px;&quot;&gt;Invalid Credentials&lt;br&gt;&lt;/font&gt;" style="endArrow=classic;html=1;rounded=0;exitX=0;exitY=0.75;exitDx=0;exitDy=0;entryX=1;entryY=1;entryDx=0;entryDy=0;" edge="1" parent="1" source="Y__0igIWQnhQRCgXSOKa-3" target="Y__0igIWQnhQRCgXSOKa-14">
          <mxGeometry x="0.1642" y="-20" width="50" height="50" relative="1" as="geometry">
            <mxPoint x="580" y="100" as="sourcePoint" />
            <mxPoint x="-326" y="158" as="targetPoint" />
            <Array as="points">
              <mxPoint x="540" y="320" />
              <mxPoint x="-270" y="320" />
            </Array>
            <mxPoint as="offset" />
          </mxGeometry>
        </mxCell>
        <mxCell id="Y__0igIWQnhQRCgXSOKa-76" value="" style="endArrow=classic;html=1;rounded=0;entryX=0.75;entryY=1;entryDx=0;entryDy=0;exitX=0;exitY=1;exitDx=0;exitDy=0;" edge="1" parent="1" source="Y__0igIWQnhQRCgXSOKa-3" target="Y__0igIWQnhQRCgXSOKa-14">
          <mxGeometry width="50" height="50" relative="1" as="geometry">
            <mxPoint x="662" y="380" as="sourcePoint" />
            <mxPoint x="-340" y="230" as="targetPoint" />
            <Array as="points">
              <mxPoint x="560" y="380" />
              <mxPoint x="-320" y="370" />
            </Array>
          </mxGeometry>
        </mxCell>
        <mxCell id="Y__0igIWQnhQRCgXSOKa-77" value="&lt;font style=&quot;font-size: 30px;&quot;&gt;Account Deleted&lt;br&gt;&lt;/font&gt;" style="edgeLabel;html=1;align=center;verticalAlign=middle;resizable=0;points=[];" vertex="1" connectable="0" parent="Y__0igIWQnhQRCgXSOKa-76">
          <mxGeometry x="0.1041" relative="1" as="geometry">
            <mxPoint x="9" y="-20" as="offset" />
          </mxGeometry>
        </mxCell>
      </root>
    </mxGraphModel>
  </diagram>
</mxfile>
